# Dodo point cloud (vertices only) for reconstruction examples
v 0 0.20341 -0.56813
v 0.09158 0.20937 -0.53968
v 0.06749 0.25223 -0.56868
v 0.02856 0.28874 -0.57512
v -0.03808 0.2851 -0.57447
v -0.06749 0.25223 -0.56868
v -0.08073 0.20538 -0.54831
v -0.04543 0.1327 -0.5476
v 0.03635 0.12814 -0.5468
v 0.20542 0.20244 -0.51499
v 0.12662 0.29259 -0.53172
v 0.09264 0.35588 -0.56303
v 0.03973 0.3894 -0.56894
v 0 0.39577 -0.57006
v -0.05824 0.38006 -0.5673
v -0.14434 0.35897 -0.53089
v -0.13049 0.29578 -0.53552
v -0.12346 0.20677 -0.53826
v -0.13763 0.12834 -0.53778
v -0.14218 0.07867 -0.51119
v -0.05824 0.0377 -0.50693
v 0.01986 0.02518 -0.50472
v 0.09264 0.06188 -0.51119
v 0.12962 0.12862 -0.5319
v 0.18909 0.30381 -0.5388
v 0.18797 0.3566 -0.52945
v 0.11219 0.45217 -0.54095
v 0.02904 0.48412 -0.54658
v -0.05808 0.47946 -0.54576
v -0.11219 0.45217 -0.54095
v -0.21624 0.35231 -0.53341
v -0.21674 0.28627 -0.51169
v -0.22297 0.20357 -0.51126
v -0.22438 0.14352 -0.52654
v -0.21952 0.06194 -0.4354
v -0.15494 0.06004 -0.44483
v -0.11219 -0.02104 -0.45751
v -0.05808 -0.04834 -0.45269
v 0.02904 -0.05299 -0.45187
v 0.11219 -0.02104 -0.45751
v 0.18762 0.05995 -0.44587
v 0.20683 0.14157 -0.53121
v 0.24633 0.18651 -0.47704
v 0.29539 0.3237 -0.45953
v 0.27239 0.36746 -0.44347
v 0.20398 0.47299 -0.4916
v 0.10945 0.54635 -0.50454
v 0 0.57586 -0.50974
v -0.07466 0.56389 -0.50763
v -0.14423 0.5288 -0.50144
v -0.20398 0.47299 -0.4916
v -0.22312 0.38015 -0.44796
v -0.32722 0.28994 -0.44461
v -0.32641 0.19156 -0.4492
v -0.31321 0.12309 -0.43935
v -0.20398 -0.02373 -0.40402
v -0.13501 -0.06104 -0.36043
v -0.05079 -0.12569 -0.35842
v 0.02401 -0.1327 -0.36008
v 0.0959 -0.11772 -0.35094
v 0.11965 -0.04532 -0.35192
v 0.20398 -0.02373 -0.40402
v 0.26472 0.06657 -0.43009
v 0.285 0.12691 -0.44817
v 0.34014 0.21503 -0.36357
v 0.33206 0.34414 -0.40352
v 0.29772 0.44509 -0.42132
v 0.24309 0.53179 -0.43661
v 0.17189 0.59831 -0.44834
v 0.08898 0.64012 -0.45571
v 0 0.65438 -0.45823
v -0.08898 0.64012 -0.45571
v -0.17189 0.59831 -0.44834
v -0.24309 0.53179 -0.43661
v -0.29772 0.44509 -0.42132
v -0.30283 0.34967 -0.42512
v -0.33869 0.21337 -0.35762
v -0.31021 0.12267 -0.36421
v -0.29772 0.02652 -0.34752
v -0.24309 -0.06017 -0.33223
v -0.1316 -0.13038 -0.32999
v -0.08898 -0.16851 -0.31313
v 0 -0.18277 -0.31062
v 0.10396 -0.20675 -0.30963
v 0.17189 -0.12669 -0.3205
v 0.24309 -0.06017 -0.33223
v 0.27504 0.04989 -0.36138
v 0.32991 0.14329 -0.36755
v 0.35429 0.24505 -0.30372
v 0.3754 0.37123 -0.33259
v 0.33658 0.48536 -0.35271
v 0.27481 0.58336 -0.36999
v 0.19432 0.65856 -0.38325
v 0.10059 0.70584 -0.39158
v 0 0.72196 -0.39443
v -0.10059 0.70584 -0.39158
v -0.19432 0.65856 -0.38325
v -0.27481 0.58336 -0.36999
v -0.33658 0.48536 -0.35271
v -0.3754 0.37123 -0.33259
v -0.38865 0.24875 -0.31099
v -0.3754 0.12628 -0.28939
v -0.33658 0.01215 -0.26927
v -0.27481 -0.08586 -0.25199
v -0.21463 -0.13898 -0.25048
v -0.10059 -0.20833 -0.23039
v 0 -0.22446 -0.22755
v 0.10059 -0.20833 -0.23039
v 0.20392 -0.13509 -0.26373
v 0.27481 -0.08586 -0.25199
v 0.33658 0.01215 -0.26927
v 0.3754 0.12628 -0.28939
v 0.42146 0.29796 -0.16842
v 0.40734 0.39597 -0.25318
v 0.36521 0.51981 -0.27501
v 0.29819 0.62615 -0.29376
v 0.21085 0.70775 -0.30815
v 0.10915 0.75905 -0.3172
v 0 0.77654 -0.32028
v -0.10915 0.75905 -0.3172
v -0.21085 0.70775 -0.30815
v -0.29819 0.62615 -0.29376
v -0.36521 0.51981 -0.27501
v -0.40734 0.39597 -0.25318
v -0.40874 0.29796 -0.16842
v -0.39587 0.12466 -0.17803
v -0.39 0.04435 -0.1669
v -0.28536 -0.12149 -0.18064
v -0.21085 -0.18159 -0.15134
v -0.10915 -0.23289 -0.14229
v 0 -0.25038 -0.13921
v 0.10915 -0.23289 -0.14229
v 0.21085 -0.18159 -0.15134
v 0.28536 -0.12149 -0.18064
v 0.37775 0.03714 -0.17023
v 0.43109 0.12466 -0.17803
v 0.44437 0.31702 -0.12757
v 0.42689 0.41762 -0.16771
v 0.38274 0.5474 -0.1906
v 0.31251 0.65885 -0.21025
v 0.22098 0.74437 -0.22533
v 0.11439 0.79813 -0.23481
v 0 0.81646 -0.23804
v -0.11439 0.79813 -0.23481
v -0.22098 0.74437 -0.22533
v -0.31251 0.65885 -0.21025
v -0.38274 0.5474 -0.1906
v -0.42689 0.41762 -0.16771
v -0.4544 0.3115 -0.12638
v -0.37413 0.1337 -0.13172
v -0.3915 0.03142 -0.10944
v -0.3103 -0.1139 -0.10557
v -0.22098 -0.18767 -0.06098
v -0.11439 -0.24143 -0.0515
v 0.01819 -0.29034 0.00267
v 0.11439 -0.24143 -0.0515
v 0.22098 -0.18767 -0.06098
v 0.3103 -0.1139 -0.10557
v 0.37999 0.03728 -0.10725
v 0.46883 0.12521 -0.11746
v 0.44877 0.29409 -0.05385
v 0.44413 0.45909 -0.10088
v 0.38865 0.5673 -0.10203
v 0.31733 0.68047 -0.12198
v 0.22439 0.7673 -0.13729
v 0.11615 0.82189 -0.14692
v 0 0.84051 -0.1502
v -0.11615 0.82189 -0.14692
v -0.22439 0.7673 -0.13729
v -0.31733 0.68047 -0.12198
v -0.41999 0.52588 -0.08126
v -0.46015 0.4578 -0.09846
v -0.49355 0.29838 -0.04139
v -0.48129 0.12495 -0.0201
v -0.38809 0.02975 -0.03187
v -0.31733 -0.09228 0.01428
v -0.22439 -0.17912 0.02959
v -0.11712 -0.23531 0.05608
v 0.03142 -0.27321 0.03118
v 0.10142 -0.23035 0.05178
v 0.22439 -0.17912 0.02959
v 0.31733 -0.09228 0.01428
v 0.37345 0.03084 -0.02921
v 0.46835 0.10566 -0.01999
v 0.44195 0.30984 0.03545
v 0.44421 0.46099 -0.02979
v 0.3956 0.538 -0.03101
v 0.31251 0.69034 -0.03164
v 0.22098 0.77586 -0.04672
v 0.10125 0.79077 -0.02484
v 0 0.84795 -0.05943
v -0.11439 0.82962 -0.0562
v -0.22098 0.77586 -0.04672
v -0.31251 0.69034 -0.03164
v -0.40805 0.54291 -0.02556
v -0.4082 0.46494 -0.03768
v -0.49546 0.28906 0.053
v -0.42689 0.17057 0.06001
v -0.3968 0.05358 0.04218
v -0.31251 -0.07066 0.10254
v -0.22098 -0.15618 0.11762
v -0.14393 -0.20545 0.13611
v 0 -0.22827 0.13033
v 0.12335 -0.1958 0.11426
v 0.22098 -0.15618 0.11762
v 0.31251 -0.07066 0.10254
v 0.37909 0.04992 0.04717
v 0.42689 0.17057 0.06001
v 0.452 0.28883 0.15661
v 0.46182 0.46361 0.14321
v 0.3673 0.54681 0.05214
v 0.29819 0.68818 0.05802
v 0.21085 0.76978 0.04363
v 0.11079 0.79136 0.04525
v 0 0.83857 0.0315
v -0.11697 0.78967 0.07115
v -0.21085 0.76978 0.04363
v -0.29819 0.68818 0.05802
v -0.39006 0.55802 0.03744
v -0.36975 0.45533 0.14508
v -0.38061 0.28883 0.15661
v -0.39536 0.20579 0.15097
v -0.36521 0.06838 0.16731
v -0.31625 -0.03067 0.20381
v -0.21085 -0.11956 0.20045
v -0.10915 -0.17086 0.20949
v 0 -0.18835 0.21258
v 0.10915 -0.17086 0.20949
v 0.19175 -0.13275 0.21034
v 0.29819 -0.03796 0.18606
v 0.35181 0.05825 0.14559
v 0.4362 0.20627 0.15037
v 0.38165 0.37328 0.20398
v 0.37466 0.45646 0.21277
v 0.36525 0.54625 0.14591
v 0.27481 0.67404 0.14428
v 0.16887 0.73744 0.13914
v 0.13562 0.80038 0.11569
v 0.02971 0.79596 0.12946
v -0.14344 0.78993 0.13684
v -0.19432 0.74925 0.13102
v -0.27481 0.67404 0.14428
v -0.34035 0.54007 0.13682
v -0.39213 0.45467 0.20875
v -0.39038 0.37474 0.20707
v -0.3754 0.21696 0.22488
v -0.3017 0.12743 0.24434
v -0.29886 0.03459 0.22934
v -0.19432 -0.07038 0.27555
v -0.10059 -0.11765 0.28388
v 0 -0.13378 0.28672
v 0.10059 -0.11765 0.28388
v 0.18311 -0.04025 0.30809
v 0.27481 0.00482 0.26228
v 0.33658 0.10283 0.245
v 0.3754 0.21696 0.22488
v 0.34378 0.35238 0.27672
v 0.29772 0.56167 0.23981
v 0.24309 0.64836 0.22453
v 0.16026 0.72846 0.22476
v 0.07624 0.78198 0.21705
v 0.0048 0.79328 0.21962
v -0.07443 0.78827 0.21338
v -0.15565 0.70793 0.2224
v -0.24309 0.64836 0.22453
v -0.29772 0.56167 0.23981
v -0.33206 0.46072 0.25761
v -0.31612 0.35797 0.30841
v -0.33206 0.24405 0.29582
v -0.29772 0.14309 0.31362
v -0.24309 0.0564 0.32891
v -0.14393 -0.03503 0.313
v -0.08898 -0.05193 0.34801
v 0 -0.0662 0.35052
v 0.11835 -0.03849 0.37183
v 0.27034 0.06654 0.29709
v 0.26566 0.12637 0.31713
v 0.33206 0.24405 0.29582
v 0.28847 0.36356 0.3401
v 0.27863 0.45446 0.32408
v 0.24982 0.53917 0.30914
v 0.20398 0.61192 0.29631
v 0.1147 0.69928 0.29835
v 0.04577 0.70638 0.30264
v -0.05573 0.70278 0.30265
v -0.12802 0.69941 0.29504
v -0.20398 0.61192 0.29631
v -0.24982 0.53917 0.30914
v -0.27863 0.45446 0.32408
v -0.27863 0.27265 0.35613
v -0.22207 0.21198 0.39334
v -0.20763 0.1158 0.37858
v -0.12435 0.03457 0.38836
v -0.06437 0.02796 0.38747
v 0.01802 0.02768 0.38312
v 0.10779 0.03114 0.39221
v 0.18975 0.11296 0.3967
v 0.24982 0.18794 0.37107
v 0.27863 0.27265 0.35613
v 0.18894 0.37597 0.41046
v 0.21674 0.44334 0.37905
v 0.17649 0.53752 0.36245
v 0.11219 0.60923 0.3498
v 0.01879 0.64975 0.30434
v -0.03759 0.64741 0.29634
v -0.11219 0.60923 0.3498
v -0.1336 0.53863 0.38178
v -0.19432 0.50923 0.36743
v -0.21674 0.44334 0.37905
v -0.22439 0.37263 0.39152
v -0.21674 0.30191 0.40399
v -0.14871 0.17978 0.39555
v -0.10878 0.12346 0.44512
v -0.04986 0.11577 0.46463
v 0.03287 0.11133 0.46479
v 0.1012 0.12779 0.44664
v 0.17156 0.20252 0.39844
v 0.21674 0.30191 0.40399
v 0.14059 0.45021 0.4169
v 0.09264 0.5263 0.40349
v 0.01986 0.56301 0.39701
v -0.05824 0.55049 0.39922
v -0.14059 0.45021 0.4169
v -0.15349 0.3793 0.42941
v -0.14059 0.3084 0.44191
v -0.10853 0.24716 0.45271
v -0.04932 0.19488 0.45323
v 0.0178 0.18305 0.45086
v 0.09264 0.23231 0.45533
v 0.14059 0.3084 0.44191
v 0.07616 0.3834 0.45261
v 0.03635 0.46004 0.43909
v -0.04543 0.45549 0.4399
v -0.07399 0.37154 0.4547
v -0.03808 0.30309 0.46677
v 0.02856 0.29945 0.46741
v 0.03374 0.36036 0.4607
v 0.03613 -0.21285 -0.33306
v -0.04645 -0.21173 -0.33261
v 0.12167 -0.17905 -0.3213
v 0.03078 -0.06256 -0.3547
v -0.06042 -0.04864 -0.34744
v -0.12167 -0.17905 -0.3213
v -0.14315 -0.20966 -0.29564
v -0.06683 -0.2942 -0.27984
v 0.03078 -0.29554 -0.2879
v 0.10025 -0.29677 -0.26504
v 0.17485 -0.19345 -0.28341
v 0.17604 -0.06095 -0.29848
v 0.02302 0.00722 -0.34095
v -0.04604 0.00415 -0.34007
v -0.15405 -0.0799 -0.31596
v -0.17182 -0.12341 -0.30349
v -0.13991 -0.27898 -0.25888
v -0.04604 -0.34435 -0.24014
v 0.02302 -0.34743 -0.23925
v 0.15405 -0.2603 -0.26424
v 0.1772 0.02924 -0.27318
v 0.11434 0.04289 -0.30535
v 0.02959 0.07001 -0.31312
v -0.05919 0.06605 -0.31199
v -0.13802 0.02446 -0.30006
v -0.19804 -0.042 -0.281
v -0.24206 -0.21625 -0.20279
v -0.21702 -0.27755 -0.18521
v -0.1617 -0.32195 -0.20073
v -0.11434 -0.3588 -0.19016
v -0.05919 -0.38197 -0.18352
v 0.02959 -0.38592 -0.18239
v 0.11434 -0.3588 -0.19016
v 0.17987 -0.29793 -0.20762
v 0.22088 -0.21798 -0.23054
v 0.26561 -0.04034 -0.20317
v 0.1229 0.12848 -0.28283
v 0 0.1334 -0.2748
v -0.07053 0.12398 -0.2721
v -0.15446 0.13316 -0.28384
v -0.1927 0.05244 -0.25159
v -0.24962 -0.03813 -0.22562
v -0.20528 -0.34251 -0.10561
v -0.13626 -0.38235 -0.12691
v -0.07053 -0.40996 -0.119
v 0 -0.41938 -0.1163
v 0.1034 -0.39615 -0.12296
v 0.20528 -0.34251 -0.10561
v 0.23601 -0.28118 -0.15592
v 0.26324 -0.21452 -0.17504
v 0.26682 0.03058 -0.17987
v 0.18595 0.12012 -0.20555
v 0.08313 0.19859 -0.19184
v 0 0.20969 -0.19502
v -0.08313 0.19859 -0.19184
v -0.15405 0.14495 -0.21267
v -0.21785 0.09529 -0.19843
v -0.26682 0.03058 -0.17987
v -0.29759 -0.04478 -0.15826
v -0.29759 -0.20652 -0.11188
v -0.26682 -0.28188 -0.09027
v -0.15405 -0.39625 -0.05748
v -0.07974 -0.42746 -0.04853
v 0 -0.43811 -0.04548
v 0.07974 -0.42746 -0.04853
v 0.15405 -0.39625 -0.05748
v 0.26682 -0.28188 -0.09027
v 0.29759 -0.20652 -0.11188
v 0.34232 -0.09624 -0.0325
v 0.32291 -0.01871 -0.09332
v 0.28951 0.06306 -0.11677
v 0.23639 0.13327 -0.1369
v 0.17116 0.20443 -0.11872
v -0.17116 0.20443 -0.11872
v -0.23639 0.13327 -0.1369
v -0.28951 0.06306 -0.11677
v -0.32291 -0.01871 -0.09332
v -0.3343 -0.10646 -0.06816
v -0.32291 -0.19421 -0.043
v -0.28951 -0.27598 -0.01955
v -0.23639 -0.3462 0.00058
v -0.14826 -0.38154 0.05976
v -0.06978 -0.42614 0.06109
v 0.02652 -0.43192 0.06275
v 0.08652 -0.43395 0.02574
v 0.17116 -0.3969 0.05371
v 0.23639 -0.3462 0.00058
v 0.28951 -0.27598 -0.01955
v 0.32291 -0.19421 -0.043
v 0.27557 0.12844 -0.05834
v 0.09068 0.2572 -0.09526
v 0 0.2693 -0.09873
v -0.09068 0.2572 -0.09526
v -0.24773 0.16523 -0.06889
v -0.328 0.12691 -0.03125
v -0.33841 0.00595 -0.02322
v -0.35035 -0.08601 0.00315
v -0.33841 -0.17797 0.02952
v -0.30341 -0.26367 0.05409
v -0.24773 -0.33726 0.07519
v -0.0554 -0.43432 0.12381
v 0.0187 -0.43709 0.1331
v 0.09068 -0.42922 0.10156
v 0.24773 -0.33726 0.07519
v 0.30341 -0.26367 0.05409
v 0.33841 -0.17797 0.02952
v 0.35575 -0.06492 0.0767
v 0.30809 0.11547 0.02497
v 0.28495 0.20929 -0.00648
v 0.17788 0.24754 -0.0129
v 0.09208 0.28358 -0.02323
v 0 0.29587 -0.02676
v -0.09208 0.28358 -0.02323
v -0.17788 0.24754 -0.0129
v -0.25156 0.1902 0.00354
v -0.32397 0.12896 0.03147
v -0.34363 0.02846 0.04992
v -0.35575 -0.06492 0.0767
v -0.34102 -0.14705 0.14005
v -0.30809 -0.24532 0.12843
v -0.25156 -0.32004 0.14985
v -0.14508 -0.36299 0.14825
v -0.09425 -0.41144 0.15618
v 0.11581 -0.38496 0.1452
v 0.16743 -0.3565 0.1638
v 0.25156 -0.32004 0.14985
v 0.30809 -0.24532 0.12843
v 0.34102 -0.14705 0.14005
v 0.35035 -0.04383 0.15025
v 0.29646 0.13998 0.13613
v 0.24773 0.20741 0.0782
v 0.17517 0.26388 0.06201
v 0.09068 0.29937 0.05183
v 0 0.31148 0.04836
v -0.09068 0.29937 0.05183
v -0.17517 0.26388 0.06201
v -0.24773 0.20741 0.0782
v -0.29646 0.13998 0.13613
v -0.33841 0.04813 0.12388
v -0.35035 -0.04383 0.15025
v -0.30341 -0.22149 0.20119
v -0.21027 -0.2725 0.22649
v -0.14478 -0.385 0.2275
v -0.09068 -0.38704 0.24866
v 0 -0.39915 0.25213
v 0.11183 -0.4024 0.22874
v 0.16714 -0.35992 0.23622
v 0.24773 -0.29508 0.22229
v 0.30341 -0.22149 0.20119
v 0.3343 -0.02339 0.22156
v 0.32291 0.06436 0.1964
v 0.23639 0.21635 0.15282
v 0.16715 0.27023 0.13737
v 0.08652 0.3041 0.12766
v 0 0.31565 0.12434
v -0.08652 0.3041 0.12766
v -0.16715 0.27023 0.13737
v -0.23639 0.21635 0.15282
v -0.32291 -0.11114 0.24672
v -0.28951 -0.1929 0.27017
v -0.21025 -0.28389 0.30347
v -0.16715 -0.317 0.30575
v -0.08652 -0.35087 0.31547
v 0 -0.36242 0.31878
v 0.11374 -0.37451 0.31375
v 0.18717 -0.30185 0.30861
v 0.23639 -0.26312 0.2903
v 0.28951 -0.1929 0.27017
v 0.32291 -0.11114 0.24672
v 0.30809 -0.0042 0.28847
v 0.26682 0.15203 0.24367
v 0.21785 0.21674 0.22512
v 0.15405 0.2664 0.21088
v 0.07974 0.29761 0.20193
v 0 0.30826 0.19887
v -0.07974 0.29761 0.20193
v -0.15405 0.2664 0.21088
v -0.21785 0.21674 0.22512
v -0.29759 0.07667 0.26528
v -0.30809 -0.0042 0.28847
v -0.2822 -0.12275 0.32246
v -0.20757 -0.20369 0.38119
v -0.15405 -0.2748 0.36606
v -0.05072 -0.29535 0.41629
v 0.01722 -0.29262 0.41535
v 0.07514 -0.29732 0.41236
v 0.1809 -0.2836 0.40033
v 0.20757 -0.20369 0.38119
v 0.2822 -0.12275 0.32246
v 0.27252 0.01314 0.34895
v 0.1927 0.20858 0.29291
v 0.1034 0.26631 0.27635
v 0.01973 0.26723 0.31375
v -0.06486 0.26612 0.30466
v -0.13626 0.2525 0.28031
v -0.1927 0.20858 0.29291
v -0.24962 0.11801 0.31888
v -0.27252 0.01314 0.34895
v -0.22168 -0.05357 0.39999
v -0.22046 -0.13557 0.37719
v -0.13626 -0.22622 0.41758
v 0.13626 -0.22622 0.41758
v 0.23601 -0.12505 0.38857
v 0.26324 -0.05839 0.36946
v 0.22867 0.02811 0.40115
v 0.11434 0.22896 0.34356
v -0.11434 0.22896 0.34356
v -0.22867 0.02811 0.40115
v -0.19747 -0.10461 0.45378
v -0.14374 -0.11159 0.46413
v -0.12811 -0.21097 0.48031
v -0.05985 -0.19801 0.46379
v 0.02716 -0.20189 0.45649
v 0.10446 -0.19271 0.4777
v 0.18852 -0.11243 0.45238
v 0.20091 -0.05116 0.41526
v 0.17788 0.04025 0.4435
v 0.10736 0.18215 0.40281
v 0.02302 0.21758 0.39265
v -0.06749 0.20549 0.39612
v -0.16293 0.1087 0.42387
v -0.12686 0.04239 0.4634
v -0.14897 -0.02608 0.47147
v -0.06085 -0.13214 0.49313
v 0.0234 -0.13995 0.49599
v 0.10736 -0.10164 0.48419
v 0.16617 -0.03626 0.46783
v 0.10965 0.04064 0.47748
v -0.04859 -0.04289 0.50628
v 0.02166 -0.04313 0.50945
v 0.11079 -0.01989 0.48453
v 0.03712 0.0418 0.49025
v -0.05558 0.03616 0.49586
v 0 -0.34038 0.01106
v 0.02446 -0.37519 0.03757
v -0.03119 -0.29521 0.00931
v -0.04625 -0.37261 0.04567
v 0.09579 -0.29963 0.04987
v -0.07434 -0.30129 0.03032
v 0.08485 -0.37024 0.07109
v 0.03679 -0.20125 0.03444
v -0.05923 -0.20769 0.04103
v -0.11342 -0.29558 0.06593
v 0.13636 -0.30839 0.09895
v 0.01402 -0.13789 0.07186
v -0.14944 -0.29996 0.12211
v 0.16251 -0.29153 0.14526
v 0.16452 -0.21511 0.15795
v 0.08126 -0.14402 0.09157
v -0.06166 -0.13551 0.08848
v -0.07173 -0.44463 0.22123
v 0.02103 -0.45896 0.2062
v 0.08656 -0.43891 0.22928
v 0.18685 -0.28142 0.22474
v 0.11089 -0.12054 0.14378
v 0.04755 -0.086 0.13121
v 0 -0.07944 0.12882
v -0.06971 -0.09562 0.13471
v -0.12991 -0.13584 0.14935
v -0.17746 -0.32185 0.21705
v -0.04957 -0.45512 0.29916
v 0.02479 -0.45854 0.30041
v 0.19256 -0.19633 0.23858
v 0.14096 -0.10266 0.20449
v 0.10207 -0.0536 0.22245
v 0.02642 -0.02858 0.21334
v -0.05283 -0.03222 0.21467
v -0.10207 -0.0536 0.22245
v -0.1568 -0.12429 0.21236
v -0.19256 -0.19633 0.23858
v -0.1568 -0.37651 0.30416
v -0.09968 -0.43136 0.32412
v 0.09968 -0.43136 0.32412
v 0.17264 -0.35488 0.29629
v 0.20536 -0.19904 0.31121
v 0.18233 -0.10517 0.31398
v 0.1346 -0.04334 0.30379
v -0.18233 -0.10517 0.31398
v -0.20536 -0.19904 0.31121
v -0.18093 -0.33687 0.36137
v -0.14773 -0.38222 0.37788
v -0.10446 -0.41702 0.39054
v -0.04359 -0.43248 0.41798
v 0.02906 -0.43685 0.41626
v 0.10446 -0.41702 0.39054
v 0.09502 -0.37633 0.41282
v 0.18093 -0.33687 0.36137
v 0.20492 -0.14609 0.36581
v 0.02745 0.01493 0.30721
v -0.05491 0.01114 0.30859
v -0.19432 -0.288 0.41747
v -0.14003 -0.37257 0.46582
v -0.05768 -0.45501 0.4482
v 0.02918 -0.45729 0.4521
v 0.13143 -0.37081 0.46028
v 0.18996 -0.22044 0.47409
v -0.14773 -0.02505 0.39564
v -0.20536 -0.20823 0.46231
v -0.18093 -0.28938 0.49185
v -0.10207 -0.35367 0.55107
v -0.05283 -0.37505 0.55885
v 0.02642 -0.37869 0.56018
v 0.10207 -0.35367 0.55107
v 0.17922 -0.2926 0.49474
v 0.18685 -0.12585 0.54878
v -0.19154 -0.14606 0.54493
v -0.19389 -0.21593 0.55334
v -0.1568 -0.28297 0.56116
v 0.14096 -0.30461 0.56903
v 0.19702 -0.27782 0.55261
v 0.18091 -0.20306 0.5608
v 0.15911 -0.03898 0.53957
v 0.10869 0.01246 0.56135
v -0.12241 0.00281 0.55473
v -0.14993 -0.03477 0.56841
v -0.13135 -0.11838 0.55368
v -0.16592 -0.19126 0.55753
v -0.13826 -0.22288 0.647
v -0.12991 -0.27143 0.62417
v -0.06971 -0.31165 0.63881
v 0.02378 -0.32455 0.6435
v 0.11089 -0.28673 0.62974
v 0.19048 -0.21962 0.6263
v 0.16404 -0.14738 0.63545
v 0.15698 -0.07165 0.61221
v 0.14074 -0.03057 0.59726
v 0.02103 0.05169 0.56732
v -0.06166 0.04028 0.57147
v -0.1356 -0.05365 0.64062
v -0.14723 -0.13076 0.6408
v -0.06166 -0.27176 0.68504
v 0.02103 -0.28317 0.6892
v 0.08126 -0.26325 0.68195
v 0.12783 -0.21854 0.66568
v 0.12481 -0.10861 0.64794
v 0.12491 -0.04465 0.65483
v 0.09643 0.00218 0.63778
v 0.03066 0.02789 0.64969
v -0.05608 0.0199 0.64835
v -0.12302 -0.12248 0.71011
v -0.13875 -0.1688 0.72044
v -0.05608 -0.20673 0.73083
v 0.03066 -0.21198 0.737
v 0.10726 -0.18515 0.70596
v 0.101 -0.12198 0.72274
v 0.08239 -0.04465 0.7099
v -0.04736 -0.04071 0.73102
v -0.10246 -0.05644 0.70166
v -0.05986 -0.11768 0.74442
v 0.02357 -0.04285 0.73846
v 0 0.00091 0.71213
v -0.03292 -0.1227 0.77916
v 0.01496 -0.12143 0.77895
v 0.04312 -0.10729 0.74571
v 0.02085 -0.37447 0.41298
v -0.04898 -0.36949 0.41706
v 0.11741 -0.28317 0.45247
v -0.08481 -0.253 0.44262
v -0.13594 -0.29174 0.46348
v -0.12711 -0.4581 0.47448
v 0.11224 -0.45647 0.46348
v 0.17182 -0.36873 0.4875
v -0.06411 -0.52845 0.48244
v 0.02187 -0.54147 0.48244
v 0.08449 -0.51875 0.48244
v -0.18377 -0.35051 0.49763
v 0.15915 -0.45614 0.49763
v 0.21128 -0.37111 0.54579
v 0.1469 -0.18162 0.53281
v 0.10829 -0.13486 0.55228
v 0.02803 -0.10575 0.55228
v -0.05606 -0.10999 0.55228
v -0.20921 -0.28606 0.55228
v -0.21128 -0.37111 0.54579
v -0.17992 -0.46993 0.53281
v -0.13072 -0.54636 0.55228
v -0.05604 -0.54655 0.5779
v 0.02363 -0.62153 0.57291
v 0.02248 -0.54974 0.57182
v 0.09578 -0.54777 0.57232
v 0.19763 -0.45586 0.55877
v -0.20648 -0.44883 0.57174
v -0.04577 -0.62464 0.57783
v 0.1594 -0.53376 0.57174
v 0.23807 -0.35051 0.63463
v 0.22995 -0.27967 0.63463
v 0.06162 -0.08614 0.63463
v 0 -0.07681 0.63463
v -0.06162 -0.08614 0.63463
v -0.20617 -0.21366 0.63463
v -0.22995 -0.27967 0.63463
v -0.22154 -0.38801 0.65943
v -0.21077 -0.45808 0.66239
v -0.12544 -0.53957 0.62461
v -0.11793 -0.61764 0.62947
v -0.05122 -0.62055 0.6694
v 0.02806 -0.61806 0.66884
v 0.11315 -0.61759 0.63485
v 0.19364 -0.51966 0.65943
v 0.21005 -0.45808 0.66204
v 0.23665 -0.39959 0.71078
v 0.22297 -0.28182 0.71956
v 0.1864 -0.20096 0.72647
v 0.16705 -0.15845 0.69881
v -0.19991 -0.21782 0.71956
v -0.22297 -0.28182 0.71956
v -0.2114 -0.40478 0.71751
v -0.24663 -0.4754 0.73227
v -0.14639 -0.55042 0.72647
v -0.11812 -0.58572 0.69881
v -0.03825 -0.64008 0.71323
v 0.02434 -0.63654 0.71524
v 0.11812 -0.58572 0.69881
v 0.20931 -0.51012 0.71842
v 0.21417 -0.46402 0.72864
v 0.20899 -0.40527 0.71815
v 0.11271 -0.57494 0.7403
v 0.18478 -0.3738 0.80642
v 0.18909 -0.29226 0.79682
v 0.16953 -0.23798 0.79682
v 0.11097 -0.19448 0.81953
v 0.10388 -0.14366 0.77923
v -0.10388 -0.14366 0.77923
v -0.14499 -0.21677 0.80642
v -0.20067 -0.28869 0.77923
v -0.1974 -0.37111 0.79096
v -0.14169 -0.46285 0.80717
v -0.14658 -0.54487 0.78596
v -0.06236 -0.52851 0.80901
v 0.033 -0.63786 0.78413
v 0.03392 -0.53666 0.81151
v 0.10976 -0.53526 0.79887
v 0.20875 -0.45858 0.77188
v -0.06963 -0.18126 0.83466
v -0.15333 -0.28744 0.83466
v -0.16021 -0.38403 0.83466
v 0.12723 -0.45996 0.81543
v 0.14124 -0.28324 0.84479
v 0.01995 -0.17625 0.84479
v 0.12207 -0.40553 0.81568
v 0.09363 -0.37196 0.88032
v 0.09097 -0.29576 0.87669
v 0.03034 -0.22033 0.86943
v -0.04551 -0.2242 0.86943
v -0.04908 -0.29408 0.88927
v -0.10987 -0.29819 0.86943
v -0.1179 -0.36835 0.86943
v -0.10388 -0.41945 0.86943
v -0.04935 -0.44878 0.8785
v 0.03018 -0.45398 0.8798
v 0.09434 -0.43373 0.86943
v 0.02066 -0.29315 0.89425
v -0.04898 -0.36949 0.89499
v 0.02085 -0.37447 0.89907
v 0 -0.46474 0.71314
v 0.16644 -0.54328 0.78657
v 0.033 -0.39571 0.78657
v -0.06473 -0.4035 0.78657
v -0.14851 -0.61333 0.785
v -0.06473 -0.65652 0.78657
v 0.01 -0.71678 0.77243
v 0.14563 -0.61337 0.78496
v 0.15625 -0.6135 0.78512
v 0 -0.49738 0.79147
v -0.15181 -0.71097 0.79147
v -0.10999 -0.79319 0.77406
v -0.0657 -0.78145 0.78103
v 0.03082 -0.79118 0.78331
v 0.10087 -0.78655 0.7758
v 0.1384 -0.73854 0.79147
v 0.15852 -0.69719 0.79147
v 0.14499 -0.79112 0.75394
v 0.11081 -0.70118 0.75394
v -0.03684 -0.6961 0.69437
v -0.12055 -0.71146 0.75394
v -0.14499 -0.79112 0.75394
v -0.10917 -0.88666 0.7241
v -0.06746 -0.86096 0.70172
v -0.05737 -0.95935 0.70824
v 0.02775 -0.96637 0.71608
v 0.09667 -0.87932 0.71678
v 0.02867 -0.83981 0.68866
v -0.09927 -0.92626 0.70172
v 0.08706 -0.94469 0.69985
v 0.04001 -0.95996 0.64852
v -0.0471 -0.70056 0.58479
v 0.02028 -0.70115 0.58124
v -0.03454 -0.77013 0.59415
v 0.02303 -0.77338 0.59393
v 0.08927 -0.62953 0.589
v 0.0824 -0.70198 0.59295
v 0.02795 -0.46626 0.58889
v -0.04193 -0.47169 0.58927
v -0.09876 -0.64993 0.59375
v -0.07581 -0.71773 0.66037
v -0.06238 -0.80023 0.64331
v 0.03427 -0.80849 0.64908
v 0.0915 -0.77942 0.6375
v 0.10223 -0.71192 0.64117
v -0.11707 -0.70257 0.63213
v -0.03898 -0.86184 0.6448
v 0.02413 -0.86292 0.64463
v 0.09441 -0.53965 0.63721
v 0.08841 -0.49234 0.61743
v -0.05789 -0.46609 0.62502
v -0.10828 -0.75723 0.63595
v 0.02853 -0.45193 0.62944
v -0.0534 -0.54122 0.66083
v 0.02164 -0.54756 0.66802
v 0.05557 -0.71153 0.67816
v -0.03157 -0.8032 0.704
v 0.01894 -0.7975 0.70189
v 0.01073 -0.69749 0.68332
v 0.10937 -0.87998 0.76536
v -0.02999 -0.74273 0.76536
v -0.10937 -0.87998 0.76536
v -0.05662 -0.9468 0.76536
v 0.02931 -0.95779 0.76536
v 0.08193 -0.93112 0.76536
v -0.05002 -0.9579 0.65276
v 0 -0.93962 0.58585
v -0.40737 0.37722 -0.11363
v -0.40923 0.45671 -0.09466
v -0.45793 0.37813 -0.10962
v -0.43993 0.28369 -0.16372
v -0.3963 0.3142 -0.13044
v -0.4614 0.46283 -0.03204
v -0.44902 0.20857 -0.16968
v -0.39532 0.21039 -0.17553
v -0.46771 0.54146 -0.02109
v -0.33824 0.3488 -0.08187
v -0.33113 0.38569 -0.03696
v -0.45426 0.55914 0.02589
v -0.4588 0.39701 -0.05246
v -0.49115 0.20538 -0.10561
v -0.44532 0.13027 -0.17028
v -0.34846 0.23947 -0.13285
v -0.33604 0.28334 -0.0989
v -0.33984 0.46206 -0.00206
v -0.41755 0.61902 0.034
v -0.47722 0.12244 -0.11723
v -0.33431 0.19401 -0.09653
v -0.32053 0.29982 -0.03724
v -0.33046 0.45383 0.05614
v -0.45861 0.62133 0.03144
v -0.49854 0.45383 0.05614
v -0.43871 0.06793 -0.15598
v -0.31932 0.37538 0.05205
v -0.34518 0.5136 0.08367
v -0.3794 0.55152 0.1528
v -0.40604 0.59 0.13024
v -0.43987 0.58636 0.1176
v -0.45966 0.54199 0.14367
v -0.50968 0.37538 0.05205
v -0.50968 0.22912 -0.01615
v -0.44956 0.04288 -0.10956
v -0.34465 0.10823 -0.08894
v -0.31932 0.22912 -0.01615
v -0.32017 0.28387 0.05738
v -0.33739 0.45934 0.12403
v -0.48483 0.45667 0.14617
v -0.45159 0.03781 -0.03512
v -0.33249 0.38272 0.13009
v -0.40287 0.52509 0.20146
v -0.43776 0.5207 0.19941
v -0.488 0.37034 0.14775
v -0.49693 0.20308 0.06528
v -0.35095 0.08953 -0.00165
v -0.33207 0.20308 0.06528
v -0.33677 0.29934 0.12912
v -0.44388 0.45403 0.20933
v -0.47716 0.28804 0.14863
v -0.46481 0.12369 0.06837
v -0.35377 0.35178 0.17422
v -0.45275 0.37923 0.20158
v -0.43931 0.06013 0.03434
v -0.38367 0.11373 0.07809
v -0.45212 0.21616 0.14802
v -0.4074 0.28963 0.19365
v -0.44292 0.30398 0.19293
v -0.43993 0.15115 0.12051
v -0.40179 0.14497 0.11995
v -0.45417 0.53111 -0.08247
v -0.41532 0.61122 -0.01579
v -0.46213 0.61585 -0.02567
v -0.4174 0.40101 -0.05667
v -0.45811 0.67991 0.00294
v -0.42772 0.67616 0.00667
v -0.45584 0.68644 0.03541
v -0.42538 0.67891 0.02842
v -0.22039 0.21421 -0.68071
v -0.22449 0.21984 -0.62278
v -0.22198 0.12815 -0.62164
v -0.16106 0.20146 -0.6181
v -0.16308 0.14469 -0.60681
v -0.22221 0.28539 -0.62243
v -0.28412 0.20588 -0.60861
v -0.28228 0.14429 -0.60596
v -0.15618 0.27795 -0.6022
v -0.28618 0.27712 -0.59791
v -0.29395 0.13149 -0.54465
v -0.21867 0.06816 -0.52467
v -0.30975 0.30035 -0.53149
v -0.2956 0.19502 -0.53282
v -0.27835 0.07964 -0.50988
v -0.28227 0.34305 -0.51493
v -0.08973 0.19552 -0.45313
v -0.09229 0.25991 -0.44382
v -0.34985 0.21601 -0.45638
v -0.28426 0.07887 -0.43466
v -0.11549 0.12044 -0.44124
v -0.11178 0.31143 -0.43898
v -0.14426 0.35151 -0.43232
v -0.09197 0.21345 -0.38483
v -0.34885 0.22505 -0.39928
v -0.21867 0.07385 -0.36588
v -0.13078 0.12187 -0.36402
v -0.10936 0.2883 -0.35372
v -0.14664 0.34696 -0.36301
v -0.21867 0.37444 -0.36736
v -0.2907 0.34696 -0.36301
v -0.32799 0.2883 -0.35372
v -0.21867 0.08606 -0.33944
v -0.10366 0.2097 -0.33535
v -0.29538 0.20918 -0.26807
v -0.28378 0.13644 -0.29587
v -0.22292 0.12626 -0.27677
v -0.14197 0.20918 -0.26807
v -0.14749 0.29497 -0.27899
v -0.17212 0.34083 -0.29835
v -0.22474 0.35064 -0.29793
v -0.2693 0.3472 -0.31321
v -0.28986 0.29497 -0.27899
v -0.21867 0.30924 -0.24738
v -0.21867 0.18 -0.23657
v -0.22228 0.21652 -0.22311
v -0.176 0.26546 -0.23355
v -0.22621 0.26779 -0.22537
v -0.17726 0.23094 -0.22808
v -0.22897 0.14196 -0.85474
v -0.23157 0.20579 -0.85864
v -0.22201 0.12173 -0.77849
v -0.22056 0.19567 -0.79423
v -0.27205 0.18153 -0.78971
v -0.28326 0.12824 -0.78787
v -0.16488 0.12353 -0.79242
v -0.17264 0.17191 -0.78805
v -0.17562 0.1457 -0.6977
v -0.17455 0.18607 -0.69257
v -0.27872 0.19347 -0.69432
v -0.27761 0.13838 -0.69567
v -0.22172 0.10907 -0.68988
v -0.22847 0.18412 -0.47863
v -0.22847 0.16431 -0.48348
v -0.22493 0.0324 -0.87533
v -0.29413 0.11318 -0.85998
v -0.29955 0.03853 -0.86601
v -0.2234 -0.04584 -0.86677
v -0.15511 0.0394 -0.86531
v -0.15994 0.11312 -0.85765
v -0.29889 -0.04327 -0.86506
v -0.15436 -0.0429 -0.86538
v -0.27141 0.21221 -0.85529
v -0.22556 -0.12205 -0.86527
v -0.16548 0.16789 -0.83453
v -0.15656 0.03925 -0.79652
v -0.29256 0.04196 -0.79048
v -0.28415 -0.03346 -0.80196
v -0.22847 -0.08922 -0.81527
v -0.22155 -0.04508 -0.78832
v -0.16569 -0.0241 -0.80262
v -0.2245 0.04509 -0.76836
v -0.30027 -0.13475 -0.86573
v -0.30027 -0.19424 -0.86511
v -0.22847 -0.20818 -0.86518
v -0.22847 -0.2566 -0.86491
v -0.15523 -0.13602 -0.86569
v -0.15666 -0.19424 -0.86511
v -0.23254 0.28732 -0.86476
v -0.23662 0.3578 -0.87036
v -0.26854 0.2907 -0.86649
v -0.21051 -0.50341 0.67596
v -0.17698 -0.45821 0.71477
v -0.224 -0.50676 0.72037
v -0.21051 -0.45821 0.77099
v 0.44451 0.37792 -0.11097
v 0.3873 0.3768 -0.11315
v 0.39232 0.45046 -0.08451
v 0.3581 0.298 -0.12844
v 0.38907 0.28369 -0.16372
v 0.44365 0.5425 -0.01929
v 0.3865 0.46845 -0.04712
v 0.38359 0.21166 -0.17154
v 0.43769 0.20831 -0.17486
v 0.49076 0.3488 -0.08187
v 0.49787 0.38569 -0.03696
v 0.45127 0.56016 0.02526
v 0.34369 0.39184 -0.04189
v 0.33785 0.20538 -0.10561
v 0.38368 0.13027 -0.17028
v 0.48054 0.23947 -0.13285
v 0.49297 0.28334 -0.0989
v 0.49192 0.47674 -0.04891
v 0.44471 0.62032 0.03221
v 0.35178 0.12244 -0.11723
v 0.49469 0.19401 -0.09653
v 0.50848 0.29982 -0.03724
v 0.49854 0.45383 0.05614
v 0.39029 0.58611 0.08565
v 0.33046 0.45383 0.05614
v 0.32255 0.29231 -0.05135
v 0.42661 0.06336 -0.15811
v 0.50968 0.37538 0.05205
v 0.45401 0.54559 0.14771
v 0.42296 0.59 0.13024
v 0.38913 0.58636 0.1176
v 0.31981 0.37501 0.05188
v 0.31647 0.31483 -0.00902
v 0.31981 0.2295 -0.01598
v 0.43641 0.03419 -0.11115
v 0.50968 0.22912 -0.01615
v 0.50883 0.28387 0.05738
v 0.31835 0.37613 0.0524
v 0.31571 0.29597 0.03143
v 0.33974 0.12033 -0.01863
v 0.49854 0.15067 -0.02023
v 0.4994 0.43023 0.11046
v 0.34417 0.45667 0.14617
v 0.44099 0.03102 -0.03561
v 0.49651 0.38272 0.13009
v 0.42613 0.52509 0.20146
v 0.39124 0.5207 0.19941
v 0.34101 0.37034 0.14775
v 0.32463 0.27177 0.08333
v 0.33207 0.20308 0.06528
v 0.49693 0.20308 0.06528
v 0.49223 0.29934 0.12912
v 0.43409 0.45346 0.21326
v 0.35184 0.28804 0.14863
v 0.36887 0.12093 0.07084
v 0.48916 0.14244 0.03796
v 0.47523 0.35178 0.17422
v 0.44366 0.3794 0.20623
v 0.42939 0.05614 0.03404
v 0.4508 0.11523 0.07683
v 0.38058 0.21383 0.14939
v 0.42456 0.29374 0.19491
v 0.39102 0.2896 0.19024
v 0.38907 0.15115 0.12051
v 0.42722 0.14497 0.11995
v 0.44583 0.53002 -0.08219
v 0.44374 0.6147 -0.02449
v 0.49101 0.45176 -0.0802
v 0.44179 0.39911 -0.05536
v 0.48898 0.51446 -0.07586
v 0.49633 0.544 -0.0319
v 0.49663 0.61678 -0.01074
v 0.45204 0.67916 0.00368
v 0.45204 0.6855 0.03454
v 0.40054 0.59446 -0.01096
v 0.49059 0.63079 0.02219
v 0.20086 0.20669 -0.68256
v 0.26441 0.20321 -0.69008
v 0.19131 0.21318 -0.621
v 0.20123 0.13293 -0.62129
v 0.2694 0.20887 -0.61782
v 0.26774 0.1344 -0.60981
v 0.26789 0.28176 -0.60838
v 0.19736 0.28435 -0.62044
v 0.13438 0.21152 -0.60281
v 0.13419 0.15737 -0.59048
v 0.31993 0.19671 -0.57825
v 0.13903 0.27049 -0.58994
v 0.19276 0.07045 -0.52088
v 0.26014 0.07369 -0.5189
v 0.26587 0.13692 -0.5357
v 0.33652 0.21211 -0.52731
v 0.30211 0.30576 -0.54167
v 0.26321 0.3476 -0.52653
v 0.32775 0.14904 -0.52087
v 0.32883 0.28685 -0.50603
v 0.34762 0.19552 -0.45313
v 0.33995 0.27643 -0.43864
v 0.10203 0.28567 -0.4414
v 0.08973 0.19552 -0.45313
v 0.11549 0.12044 -0.44124
v 0.33228 0.13683 -0.44384
v 0.19208 0.37439 -0.43854
v 0.1396 0.3467 -0.43806
v 0.15258 0.08084 -0.41546
v 0.09782 0.21157 -0.36009
v 0.11863 0.13531 -0.36615
v 0.16556 0.09202 -0.35299
v 0.20744 0.07404 -0.36275
v 0.28652 0.10298 -0.35725
v 0.33138 0.28258 -0.35873
v 0.27699 0.35558 -0.36437
v 0.18849 0.36964 -0.3666
v 0.13429 0.33551 -0.36119
v 0.10936 0.2883 -0.35372
v 0.31781 0.30548 -0.33869
v 0.1321 0.21334 -0.27936
v 0.19332 0.1269 -0.27978
v 0.26626 0.13441 -0.28462
v 0.2897 0.20406 -0.26308
v 0.27936 0.29684 -0.27047
v 0.254 0.34644 -0.29924
v 0.19512 0.34959 -0.29974
v 0.13612 0.29446 -0.29378
v 0.1944 0.30661 -0.25198
v 0.16649 0.19668 -0.2437
v 0.20923 0.21459 -0.2233
v 0.25085 0.26284 -0.22807
v 0.20489 0.26941 -0.22597
v 0.24858 0.22746 -0.22415
v 0.20893 0.13546 -0.85687
v 0.26153 0.13412 -0.85615
v 0.25315 0.2066 -0.85891
v 0.21611 0.2054 -0.85719
v 0.26854 0.12508 -0.78412
v 0.25938 0.19051 -0.79272
v 0.20476 0.19333 -0.79347
v 0.19826 0.12323 -0.78022
v 0.26733 0.12688 -0.69345
v 0.19574 0.12299 -0.6928
v 0.25542 0.1986 -0.51691
v 0.22352 0.18481 -0.47801
v 0.22595 0.16393 -0.48345
v 0.19393 0.0351 -0.8713
v 0.28267 0.03885 -0.86895
v 0.19215 -0.04562 -0.86599
v 0.2816 -0.0433 -0.86549
v 0.14216 0.03858 -0.86316
v 0.1469 0.11334 -0.83778
v 0.18952 -0.13019 -0.86543
v 0.14074 -0.04279 -0.86547
v 0.28752 -0.13323 -0.86558
v 0.268 0.04432 -0.77851
v 0.14733 0.11029 -0.81438
v 0.145 0.04366 -0.80951
v 0.15192 -0.01724 -0.81795
v 0.19527 -0.0399 -0.79278
v 0.22084 -0.08951 -0.81438
v 0.25134 -0.08837 -0.81795
v 0.27047 -0.03706 -0.79562
v 0.20197 0.04261 -0.77182
v 0.14255 -0.13451 -0.86578
v 0.1454 -0.19453 -0.86513
v 0.19836 -0.20259 -0.86513
v 0.28408 -0.19795 -0.86514
v 0.22677 -0.25701 -0.86491
v 0.23796 -0.25428 -0.86491
v 0.32585 -0.04045 -0.86654
v 0.3245 -0.11829 -0.86654
v 0.32385 0.02221 -0.86654
v 0.31965 -0.18242 -0.86491
v 0.25188 0.28791 -0.86485
v 0.21981 0.28748 -0.86508
v 0.24718 0.35906 -0.87057
v 0.22193 0.35604 -0.87008
v 0.23861 -0.45821 0.67596
v 0.21051 -0.41301 0.67596
v 0.25233 -0.47771 0.73249
v 0.24413 -0.50337 0.72355
v -0.07154 0.6254 0.0654
v -0.10944 0.62519 0.06749
v -0.12124 0.61829 0.13354
v -0.05186 0.62168 0.13035
v -0.05065 0.7012 0.06209
v -0.118 0.70102 0.05703
v -0.04184 0.70701 0.13455
v -0.15096 0.70691 0.13303
v -0.11989 0.63937 0.21625
v -0.05286 0.63583 0.21754
v -0.0566 0.78326 0.07807
v -0.0357 0.79023 0.13219
v -0.04741 0.70576 0.22439
v -0.05368 0.86662 0.14656
v -0.12481 0.86858 0.14684
v -0.16331 0.79509 0.22847
v -0.14785 0.77899 0.31081
v -0.04864 0.78406 0.30868
v -0.03769 0.88039 0.22547
v -0.15289 0.87795 0.22636
v -0.10767 0.74317 0.35092
v -0.04788 0.73045 0.36113
v -0.04106 0.87391 0.31013
v -0.05843 0.94799 0.23126
v -0.1193 0.94636 0.22937
v -0.15399 0.87892 0.31116
v -0.11933 0.8 0.37421
v -0.05575 0.7954 0.38867
v -0.04842 0.96064 0.30845
v -0.12311 0.96883 0.30817
v -0.12339 0.87673 0.39103
v -0.05939 0.87929 0.39489
v -0.06675 0.96446 0.38875
v -0.11167 0.96201 0.38555
v -0.08812 1 0.32404
v 0.01306 0.64587 0.07437
v 0.02819 0.70437 0.05794
v 0.02216 0.63055 0.13362
v 0.04386 0.70627 0.13288
v 0.03914 0.78245 0.06484
v 0.03042 0.63801 0.21776
v 0.04023 0.69819 0.22098
v 0.11024 0.70683 0.21894
v 0.03776 0.86534 0.14763
v 0.09815 0.78636 0.31089
v 0.03674 0.88318 0.22206
v 0.02283 0.72493 0.37041
v 0.11459 0.87975 0.31339
v 0.02648 0.9316 0.23886
v 0.02818 0.78205 0.31246
v 0.02952 0.87978 0.31092
v 0.03485 0.94492 0.31253
v 0.04348 0.79726 0.39616
v 0.11079 0.79154 0.39297
v 0.04943 0.88332 0.39711
v -0.02059 0.80881 0.44713
v 0.02087 0.80703 0.44491
v 0.02754 0.95743 0.3969
v -0.03265 0.88384 0.45691
v 0.02598 0.88142 0.46173
v 0.0056 0.94546 0.46011
v -0.02561 0.94151 0.44927
v 0.08967 0.70378 0.00588
v 0.12313 0.70125 0.04158
v 0.09515 0.65275 0.04424
v 0.06718 0.7245 0.01068
v 0.09975 0.63992 0.13669
v 0.14545 0.69197 0.12171
v 0.08812 0.84872 0.0809
v 0.15814 0.79376 0.15626
v 0.11374 0.88393 0.14458
v 0.09739 0.65449 0.22237
v 0.16322 0.79 0.2189
v 0.15639 0.85718 0.22819
v 0.13722 0.90051 0.22114
v 0.159 0.79147 0.29139
v 0.09739 0.93568 0.23456
v 0.15749 0.85081 0.31044
v 0.09713 0.73105 0.35923
v 0.10323 0.94787 0.30881
v 0.13333 0.88352 0.40074
v 0.09834 0.94304 0.39454
v 0.09429 0.81365 0.43522
v 0.09293 0.88418 0.44943
v 0.08812 0.92646 0.4371
